Coordinates
version=1
nRows=14
nColumns=24
inDegrees=yes

Units are S.I. units (second, meters, Newtons, ...)
Angles are in degrees.

endheader
time	pelvis_tilt	pelvis_list	pelvis_rotation	pelvis_tx	pelvis_ty	pelvis_tz	hip_flexion_r	hip_adduction_r	hip_rotation_r	knee_angle_r	ankle_angle_r	subtalar_angle_r	mtp_angle_r	hip_flexion_l	hip_adduction_l	hip_rotation_l	knee_angle_l	ankle_angle_l	subtalar_angle_l	mtp_angle_l	lumbar_extension	lumbar_bending	lumbar_rotation
      3.29000000	    -12.09784778	     -1.16413826	      5.19660439	     -1.81221221	     -0.04084866	     -0.27855329	     37.22847151	     -2.50984985	     -8.35762898	    -10.13692044	     -3.17249079	     -3.55737704	     12.93114863	     -4.51607465	     -1.05706568	     -4.20508986	    -14.78273555	      8.86813649	     -1.99648862	     -4.96532149	      4.65863029	      1.39263228	     -8.86192836
      3.29500000	    -12.11675267	     -1.33598234	      5.25384839	     -1.80398960	     -0.04156920	     -0.27777164	     37.24198415	     -2.30287274	     -8.26312316	    -10.75015523	     -3.77137570	     -4.18866947	     13.17964381	     -4.64364470	     -1.44778419	     -4.40861371	    -15.37952903	      8.48363056	     -1.39732690	     -4.69804144	      4.81324554	      1.56370720	     -8.90206321
      3.30000000	    -12.15872557	     -1.55239332	      5.31914035	     -1.79563630	     -0.04219228	     -0.27701687	     37.24856552	     -2.06293532	     -8.22404960	    -11.33630045	     -4.62898187	     -4.87296458	     13.58654437	     -4.73097907	     -1.88213048	     -4.53798146	    -15.98477445	      7.93221957	     -0.92329142	     -4.32843613	      5.02149510	      1.77621024	     -8.94478011
      3.30500000	    -12.21792828	     -1.78724719	      5.40307316	     -1.78740582	     -0.04277881	     -0.27629481	     37.30079933	     -1.82779128	     -8.23534976	    -11.98471997	     -5.61911773	     -5.55273499	     13.80792432	     -4.73584346	     -2.33120674	     -4.57651412	    -16.68369217	      7.39324785	     -0.51132710	     -4.08074405	      5.22573946	      2.01092233	     -9.04597662
      3.31000000	    -12.21379756	     -2.09257600	      5.38871947	     -1.77893357	     -0.04321462	     -0.27547744	     37.23623882	     -1.46001828	     -8.21989494	    -12.48477034	     -7.12829188	     -6.51733110	     15.90512597	     -4.83315944	     -2.87545893	     -4.82159216	    -17.30025607	      6.39180515	     -0.19029751	     -2.22595063	      5.40703161	      2.33982326	     -9.00006958
      3.31500000	    -12.36593806	     -2.39214667	      5.40024140	     -1.77051127	     -0.04366196	     -0.27472345	     37.37790689	     -1.13537733	     -8.19691737	    -13.14017302	     -8.24829204	     -7.18712911	     15.73385231	     -4.69132158	     -3.37468236	     -4.83224477	    -18.07160167	      5.67889204	      0.10765918	     -2.28278390	      5.75586037	      2.64986726	     -9.00476554
      3.32000000	    -12.46800035	     -2.68108075	      5.31239777	     -1.76225338	     -0.04401313	     -0.27367413	     37.49227381	     -0.72295028	     -7.94128405	    -13.80403377	     -9.51163183	     -8.13794871	     15.54720004	     -4.54199265	     -3.89992893	     -5.07930481	    -18.95057636	      4.96419539	      0.60155665	     -2.18561108	      6.01000718	      2.94694588	     -8.95644822
      3.32500000	    -12.52938013	     -2.99682246	      5.11938138	     -1.75383170	     -0.04423055	     -0.27252640	     37.55230309	     -0.21518956	     -7.62717552	    -14.46266170	    -10.65417439	     -9.02695688	     15.41766904	     -4.44128255	     -4.46702111	     -5.51412869	    -19.81978719	      4.00761822	      1.08292138	     -1.62810399	      6.24358385	      3.29298279	     -8.71683360
      3.33000000	    -12.65353826	     -3.32055229	      5.07190039	     -1.74550751	     -0.04434661	     -0.27160233	     37.66753092	      0.19390259	     -7.44080807	    -15.13919048	    -11.63641737	     -9.84722153	     15.15713879	     -4.16879802	     -5.02315717	     -5.63186404	    -20.80149979	      2.94637034	      1.38641077	     -1.38401140	      6.54761859	      3.63339433	     -8.72926435
      3.33500000	    -12.68526171	     -3.69887454	      4.87620507	     -1.73704058	     -0.04431689	     -0.27043413	     37.67742645	      0.77277421	     -7.12412648	    -15.83471137	    -12.36342305	    -10.55055281	     14.27685099	     -4.02533325	     -5.67730944	     -6.05437910	    -21.67605876	      1.24207705	      1.56446096	      1.26734564	      6.76514461	      4.04538948	     -8.53938598
      3.34000000	    -12.84479860	     -3.98256410	      4.72082897	     -1.72870518	     -0.04434999	     -0.26936503	     37.83245116	      1.21366565	     -6.81225962	    -16.55691626	    -12.96406930	    -11.20495079	     14.01351336	     -3.63481940	     -6.19584274	     -6.27801601	    -22.78810668	     -0.01301473	      1.84830422	      1.21919869	      7.09596543	      4.35489576	     -8.42222719
      3.34500000	    -12.94931397	     -4.26059518	      4.52202268	     -1.72034323	     -0.04426841	     -0.26818365	     37.90071713	      1.69705815	     -6.44993570	    -17.25252880	    -13.37296283	    -11.83621611	     13.66718069	     -3.27032380	     -6.73058526	     -6.59100008	    -23.93669868	     -1.44449790	      2.11971843	      1.33688499	      7.36884015	      4.65925303	     -8.25651025
      3.35000000	    -13.04599279	     -4.52316613	      4.30875571	     -1.71199136	     -0.04411849	     -0.26694504	     37.93297200	      2.18348342	     -6.09238093	    -17.92151581	    -13.57790506	    -12.39924582	     13.24243507	     -2.86793538	     -7.25710724	     -6.89717580	    -25.12903884	     -3.07234476	      2.31363582	      1.61751645	      7.62887561	      4.94523787	     -8.08983002
      3.35500000	    -13.06542325	     -4.81649895	      4.10434252	     -1.70362625	     -0.04381174	     -0.26571541	     37.85538140	      2.69320605	     -5.87621071	    -18.61057205	    -13.22940115	    -12.53401986	     11.55125527	     -2.52139188	     -7.84085376	     -7.22976137	    -26.25287794	     -5.35005219	      2.27502159	      4.02559676	      7.80677835	      5.27134052	     -7.92648245
